<?xml version="1.0" encoding="UTF-8"?>
<svg width="26px" height="26px" viewBox="0 0 26 26" version="1.1" xmlns="http://www.w3.org/2000/svg" xmlns:xlink="http://www.w3.org/1999/xlink">
    <!-- Generator: Sketch 45.2 (43514) - http://www.bohemiancoding.com/sketch -->
    <title>Shape</title>
    <desc>Created with Sketch.</desc>
    <defs></defs>
    <g id="Page-1" stroke="none" stroke-width="1" fill="none" fill-rule="evenodd">
        <g id="Artboard-3" transform="translate(-139.000000, -46.000000)" fill-rule="nonzero" fill="#ED1C24">
            <path d="M152,46 C144.820336,46 139,51.8203364 139,59 C139,66.1796636 144.820336,72 152,72 C159.179664,72 165,66.1796636 165,59 C165,51.8203364 159.179664,46 152,46 Z M147.907221,52 L154.500394,52 C156.915332,52 159,53.9951 159,56.5 C159,59.0049 156.915332,61 154.500394,61 L151.0007,61 L151.0007,62 L155.00035,62 C155.552552,62 156.000263,62.4477 156.000263,63 C156.000263,63.55225 155.552552,64 155.00035,64 L151.0007,64 L151.0007,66 C151.008199,66.5283 150.529041,67 150.000788,67 C149.472534,67 148.993376,66.5283 149.000875,66 L149.000875,64 L148.000963,64 C147.448811,64 147.00105,63.55225 147.00105,63 C147.00105,62.4477 147.448811,62 148.000963,62 L149.000875,62 L149.000875,61 L148.000963,61 C147.472759,61.0075 147.032297,60.52835 147.032297,60 C147.032297,59.4716 147.472759,58.9925 148.000963,59 L149.000875,59 L149.000875,54 L148.000963,54 C147.477408,54.0245 147.025548,53.57055 147.00105,53.04685 C146.976552,52.5232 147.383667,52.0245 147.907221,52 Z M151,54 L151,59 L154.5,59 C155.7927,59 157,57.8731 157,56.5 C157,55.1269 155.7927,54 154.5,54 L151,54 Z" id="Shape"></path>
        </g>
    </g>
</svg>