<?xml version="1.0" encoding="UTF-8"?>
<svg width="26px" height="26px" viewBox="0 0 26 26" version="1.1" xmlns="http://www.w3.org/2000/svg" xmlns:xlink="http://www.w3.org/1999/xlink">
    <!-- Generator: Sketch 45.2 (43514) - http://www.bohemiancoding.com/sketch -->
    <title>Sale</title>
    <desc>Created with Sketch.</desc>
    <defs></defs>
    <g id="Page-1" stroke="none" stroke-width="1" fill="none" fill-rule="evenodd">
        <g id="Artboard-3" transform="translate(-70.000000, -46.000000)">
            <g id="Sale" transform="translate(68.000000, 44.000000)">
                <path d="M27.685154,16.5169823 L27.1874879,15.847491 C26.7718546,15.294895 26.7663858,14.5457023 27.1710813,13.9824795 L27.6578097,13.3076747 C28.226571,12.5212881 27.9585969,11.4320363 27.0945173,10.9750819 L26.3507525,10.5818886 C25.7327715,10.2577698 25.3937023,9.58296504 25.5140172,8.9081603 L25.6562075,8.08989312 C25.8202732,7.14410379 25.0983839,6.26738896 24.1139894,6.230195 L23.2717851,6.19300104 C22.5717713,6.16643392 21.9701968,5.69885268 21.7733179,5.0399882 L21.538157,4.24297472 C21.2647141,3.31843908 20.2256309,2.840231 19.3287381,3.22279747 L18.5521602,3.55222971 C17.9068349,3.82321429 17.1576013,3.66381159 16.6927483,3.14840954 L16.1294559,2.53205245 C15.4731929,1.81474032 14.3247326,1.82536716 13.6848761,2.54799272 L13.1325214,3.17497666 C12.6731373,3.69037871 11.9293725,3.86572167 11.2785783,3.60536394 L10.4965316,3.29187197 C9.58870105,2.92524577 8.56055565,3.41939413 8.29805044,4.34924319 L8.07382724,5.14625667 C7.88241719,5.81574799 7.2863116,6.28864266 6.59176657,6.32583662 L5.74956235,6.37365743 C4.77063667,6.42679166 4.05968506,7.31413333 4.24015739,8.25460924 L4.39328543,9.06756299 C4.51906918,9.74236774 4.19093766,10.4224859 3.57842551,10.7519181 L2.8401296,11.1557383 C1.98151881,11.6233196 1.73542018,12.7178847 2.31511918,13.4936445 L2.81278531,14.1631358 C3.22841856,14.7157319 3.23388742,15.4649245 2.82919189,16.0281474 L2.33152576,16.7082656 C1.76276447,17.4946522 2.03073854,18.583904 2.89481819,19.0408583 L3.63858295,19.4340517 C4.25656397,19.7581705 4.5956332,20.4329752 4.47531831,21.10778 L4.33859685,21.9154203 C4.17453109,22.8612096 4.89642042,23.7379245 5.88081496,23.7751184 L6.72301917,23.8123124 C7.42303307,23.8388795 8.02460751,24.3064607 8.22148642,24.9653252 L8.45664733,25.7623387 C8.73009026,26.6868743 9.76917339,27.1650824 10.6660662,26.782516 L11.4426441,26.4530837 C12.0879694,26.1820991 12.837203,26.3415018 13.302056,26.8515905 L13.8653484,27.4679475 C14.5216115,28.1852597 15.6700718,28.1746328 16.3099282,27.4520073 L16.8622829,26.8250233 C17.321667,26.3096213 18.0654318,26.1342783 18.716226,26.3946361 L19.4982727,26.708128 C20.4061033,27.0747542 21.4342487,26.5806059 21.6967539,25.6507568 L21.9209771,24.8537433 C22.1069183,24.1948789 22.7030239,23.7219842 23.4030378,23.6794768 L24.245242,23.631656 C25.2241676,23.5785218 25.9351193,22.6911801 25.7546469,21.7453908 L25.6015189,20.932437 C25.4757351,20.2576323 25.8038667,19.5775141 26.4163788,19.2480819 L27.1546747,18.8442617 C28.0187544,18.3926207 28.264853,17.2927421 27.685154,16.5169823 Z" id="Combined-Shape" fill="#F20000" fill-rule="nonzero"></path>
                <path d="M21.2272955,12.6858711 L17.2679662,12.3840318 L15.7708005,8.54110216 C15.4869776,7.81963261 14.5077886,7.81963261 14.2310613,8.54110216 L12.7338956,12.3840318 L8.77456625,12.6858711 C8.02953116,12.7447666 7.72442155,13.7165419 8.29916291,14.2171534 L11.3289723,16.8895355 L10.3781656,20.9165135 C10.2007763,21.6747927 10.9883848,22.2784713 11.6269863,21.866203 L14.9973831,19.6797086 L18.3677799,21.866203 C18.9992859,22.2784713 19.7939899,21.6747927 19.6166006,20.9165135 L18.665794,16.8895355 L21.6956033,14.2171534 C22.2774402,13.7165419 21.9723306,12.7447666 21.2272955,12.6858711 Z" id="Shape" fill="#FFFFFF" fill-rule="evenodd"></path>
            </g>
        </g>
    </g>
</svg>