<?xml version="1.0" encoding="UTF-8"?>
<svg width="9px" height="12px" viewBox="0 0 9 12" version="1.1" xmlns="http://www.w3.org/2000/svg" xmlns:xlink="http://www.w3.org/1999/xlink">
    <!-- Generator: Sketch 46.2 (44496) - http://www.bohemiancoding.com/sketch -->
    <title>Group</title>
    <desc>Created with Sketch.</desc>
    <defs></defs>
    <g id="Page-1" stroke="none" stroke-width="1" fill="none" fill-rule="evenodd">
        <g id="Group" transform="translate(-6.000000, -4.000000)" fill="#333333">
            <path d="M11.1869919,13.6747967 L9.05691057,13.6747967 L9.05691057,15.398374 L7.18699187,15.398374 L7.18699187,13.6747967 L6,13.6747967 L6,12.2113821 L7.18699187,12.2113821 L7.18699187,10.9105691 L6,10.9105691 L6,9.28455285 L7.18699187,9.28455285 L7.18699187,4 L10.2113821,4 C11.0352345,4 11.7127345,4.11382 12.2439024,4.34146341 C12.7750704,4.56910683 13.1951204,4.85907683 13.504065,5.21138211 C13.8130097,5.5636874 14.0243897,5.9457974 14.1382114,6.35772358 C14.2520331,6.76964976 14.3089431,7.15446976 14.3089431,7.51219512 C14.3089431,7.86992049 14.2466131,8.25203049 14.1219512,8.65853659 C13.9972893,9.06504268 13.7777793,9.43631268 13.4634146,9.77235772 C13.1490499,10.1084028 12.7289999,10.3875328 12.203252,10.6097561 C11.6775041,10.8319794 11.0135541,10.9430894 10.2113821,10.9430894 L9.05691057,10.9430894 L9.05691057,12.2113821 L11.1869919,12.2113821 L11.1869919,13.6747967 Z M9.05691057,9.28455285 L10.2439024,9.28455285 C10.4715459,9.28455285 10.7127359,9.26016285 10.9674797,9.21138211 C11.2222235,9.16260138 11.4607035,9.07317138 11.6829268,8.94308943 C11.9051502,8.81300748 12.0867202,8.63143748 12.2276423,8.39837398 C12.3685644,8.16531049 12.4390244,7.86450049 12.4390244,7.49593496 C12.4390244,7.11652927 12.3766944,6.80758927 12.2520325,6.56910569 C12.1273707,6.33062211 11.9620607,6.14363211 11.7560976,6.00813008 C11.5501345,5.87262805 11.3197845,5.78048805 11.0650407,5.73170732 C10.8102968,5.68292659 10.5474268,5.65853659 10.2764228,5.65853659 L9.05691057,5.65853659 L9.05691057,9.28455285 Z" id="₽"></path>
        </g>
    </g>
</svg>