<svg xmlns="http://www.w3.org/2000/svg" xmlns:xlink="http://www.w3.org/1999/xlink" width="28" height="28" viewBox="0 0 28 28">
    <defs>
        <path id="a" d="M.29.391a.824.824 0 0 1 .637-.32H5.061c.503.01.91.486.917 1.076v10.758c-.006.591-.413 1.069-.917 1.076H.934a.826.826 0 0 1-.644-.32 1.13 1.13 0 0 1-.273-.756V1.147A1.127 1.127 0 0 1 .29.391zM2.768 10.83h.008a.835.835 0 0 0 .637-.312c.357-.419.358-1.099.002-1.52a.855.855 0 0 0-.65-.315.854.854 0 0 0-.648.316c-.26.308-.336.77-.194 1.17.143.4.476.66.845.661z"/>
        <path id="c" d="M8.29.076c-.592.034-.755.463-.786.816a35.17 35.17 0 0 1-.202 1.804c-.14.985-.385 1.81-.747 2.518a5.55 5.55 0 0 1-.735 1.1c-.517.599-1.067 1.27-1.687 2.05-.088.108-.175.223-.264.334-.348.444-.688.877-1.053 1.26a3.394 3.394 0 0 1-.202.207c-.174.167-.371.313-.604.43-.542.272-1.858.37-1.912 1.3-.016.281-.03.563-.04.84l-.002.195a29.06 29.06 0 0 0-.008.714v8.898H1.41c.562.096 1.098.195 1.62.294 1.311.24 2.527.47 3.748.627 1.308.173 2.619.38 3.93.519a10.678 10.678 0 0 0 1.216-.084c1.36-.176 2.304-1.164 2.45-2.583.053-.488 0-.976-.048-1.411-.003-.019-.003-.034-.003-.04.003-.01.011-.013.014-.02.955-.824 1.26-2.289.73-3.49l-.011-.028c.093-.105.163-.223.225-.325l.03-.052c.593-.973.652-1.718.155-2.71-.005-.009-.008-.021-.014-.027l.053-.004c.135-.111.261-.234.385-.324.539-.386.932-1.032 1.033-1.792.107-.825-.244-1.687-.836-2.175-.025-.024-.056-.046-.086-.074-.025-.022-.057-.04-.084-.059-.023-.015-.048-.037-.074-.052-.036-.019-.067-.037-.106-.052a1.638 1.638 0 0 0-.197-.087h-.002a3.087 3.087 0 0 0-.646-.154h-.003a27040.292 27040.292 0 0 0-2.507.145c-.769.046-1.538.09-2.307.133l-.093.003.18-.68c.23-.859.463-1.746.713-2.607.28-.973.37-1.755.286-2.534-.107-1.007-.64-1.875-1.364-2.375A2.45 2.45 0 0 0 8.29.076z"/>
    </defs>
    <g fill="none" fill-rule="evenodd">
        <g transform="translate(2 12)">
            <mask id="b" fill="#fff">
                <use xlink:href="#a"/>
            </mask>
            <path fill="#F20000" d="M-1.13 14.326h8.254v-15.6h-8.253z" mask="url(#b)"/>
        </g>
        <g transform="translate(9 2)">
            <mask id="d" fill="#fff">
                <use xlink:href="#c"/>
            </mask>
            <path fill="#F20000" d="M-1.084 25.227h19.158v-26.4H-1.084z" mask="url(#d)"/>
        </g>
    </g>
</svg>
